# xmcd
#
# Track frame offsets:
# 150
# 9065
# 20100
# 28820
# 39007
# 50675
# 59202
# 68725
# 76872
# 86545
# 95020
# 103900
# 112332
# 118100
# 132112
# 141070
#
# Disc length: 1990 seconds
#
# Revision: 8
# Processed by: cddbd v1.4PL0 Copyright (c) Steve Scherf et al.
# Submitted via: Axialis_AX_CDPlayer 2.6
#
DISCID=dc07c410
DTITLE=Elvis Presley - Rock´n Roll Legend
DYEAR=1900
DGENRE=
TTITLE0=Tutti Frutti (Tenniman/La Bostrie/Lubin)
TTITLE1=Shake Rattle and Roll (C. Calhoun)
TTITLE2=Rip It Up (Blackwell/Marascalco)
TTITLE3=Hound Dog (Lieber/Stoller)
TTITLE4=Jailhouse Rock (Lieber/Stoller)
TTITLE5=Hard Hearted Woman (De Metrius)
TTITLE6=King Kreole (Lieber/Stoller)
TTITLE7=Crawfish (Wise/Weisman)
TTITLE8=Treat Me Nice (Lieber/Stoller)
TTITLE9=Long Tall Sally (Penniman/Johnson/Blackwell)
TTITLE10=Ready Teddy (Blackwell/Marascalco)
TTITLE11=Baby I Don't Care (Lieber/Stoller)
TTITLE12=Hot Dog (Lieber/Stoller)
TTITLE13=Lonesome Cowboy (Tepper/Bennett)
TTITLE14=All Shook Up (Blackwell/Presley)
TTITLE15=I Got Stung (Schroeder/Hill)
EXTD=DDD - recorded San Elpidio a Mare (Italy), 9/1990
EXTT0=
EXTT1=
EXTT2=
EXTT3=
EXTT4=
EXTT5=
EXTT6=
EXTT7=
EXTT8=
EXTT9=
EXTT10=
EXTT11=
EXTT12=
EXTT13=
EXTT14=
EXTT15=
PLAYORDER=
